<svg xmlns="http://www.w3.org/2000/svg" width="205.894" height="208" viewBox="0 0 205.894 208">
  <g id="Groupe_108" data-name="Groupe 108" transform="translate(-1.053)" opacity="0.1">
    <path id="Tracé_325" data-name="Tracé 325" d="M128.762,104A24.762,24.762,0,1,1,104,79.238,24.762,24.762,0,0,1,128.762,104Z" fill="#fff"/>
    <path id="Tracé_326" data-name="Tracé 326" d="M104,208a104.023,104.023,0,0,0,102.947-89.143H146.035a44.59,44.59,0,0,1-84.07,0H1.053A104.023,104.023,0,0,0,104,208ZM61.965,89.143H1.053a104.016,104.016,0,0,1,205.894,0H146.035a44.589,44.589,0,0,0-84.07,0ZM128.762,104A24.762,24.762,0,1,1,104,79.238,24.762,24.762,0,0,1,128.762,104Z" fill="#fff" fill-rule="evenodd"/>
  </g>
</svg>
